<svg width="208" height="25" viewBox="0 0 208 25" fill="none" xmlns="http://www.w3.org/2000/svg">
<path d="M34.4463 19.288C33.5223 19.288 32.6523 19.12 31.8363 18.784C31.0203 18.448 30.3003 17.98 29.6763 17.38C29.0643 16.768 28.5783 16.054 28.2183 15.238C27.8703 14.41 27.6963 13.516 27.6963 12.556C27.6963 11.596 27.8703 10.708 28.2183 9.892C28.5783 9.064 29.0643 8.35 29.6763 7.75C30.3003 7.138 31.0203 6.664 31.8363 6.328C32.6523 5.992 33.5223 5.824 34.4463 5.824C35.4303 5.824 36.3363 5.998 37.1643 6.346C38.0043 6.694 38.7063 7.18 39.2703 7.804L37.9023 9.154C37.6263 8.842 37.3083 8.578 36.9483 8.362C36.6003 8.146 36.2163 7.984 35.7963 7.876C35.3763 7.756 34.9263 7.696 34.4463 7.696C33.8103 7.696 33.2043 7.81 32.6283 8.038C32.0523 8.266 31.5423 8.596 31.0983 9.028C30.6663 9.448 30.3243 9.958 30.0723 10.558C29.8203 11.146 29.6943 11.812 29.6943 12.556C29.6943 13.3 29.8203 13.972 30.0723 14.572C30.3363 15.16 30.6843 15.67 31.1163 16.102C31.5603 16.522 32.0703 16.846 32.6463 17.074C33.2223 17.302 33.8283 17.416 34.4643 17.416C35.0523 17.416 35.5983 17.332 36.1023 17.164C36.6183 16.996 37.0683 16.756 37.4523 16.444C37.8363 16.132 38.1483 15.754 38.3883 15.31C38.6283 14.854 38.7783 14.344 38.8383 13.78H34.4283V12.034H40.6923C40.7163 12.178 40.7403 12.346 40.7643 12.538C40.7883 12.718 40.8003 12.892 40.8003 13.06V13.078C40.8003 14.002 40.6383 14.848 40.3143 15.616C40.0023 16.384 39.5643 17.044 39.0003 17.596C38.4363 18.136 37.7643 18.556 36.9843 18.856C36.2163 19.144 35.3703 19.288 34.4463 19.288ZM47.1762 19.288C46.2282 19.288 45.3942 19.072 44.6742 18.64C43.9542 18.208 43.3902 17.626 42.9822 16.894C42.5742 16.15 42.3702 15.322 42.3702 14.41C42.3702 13.498 42.5742 12.676 42.9822 11.944C43.3902 11.2 43.9542 10.612 44.6742 10.18C45.3942 9.748 46.2282 9.532 47.1762 9.532C48.1122 9.532 48.9402 9.754 49.6602 10.198C50.3802 10.63 50.9442 11.212 51.3522 11.944C51.7602 12.676 51.9642 13.498 51.9642 14.41C51.9642 15.322 51.7602 16.15 51.3522 16.894C50.9442 17.626 50.3802 18.208 49.6602 18.64C48.9402 19.072 48.1122 19.288 47.1762 19.288ZM47.1762 17.506C47.6802 17.506 48.1482 17.386 48.5802 17.146C49.0122 16.894 49.3602 16.54 49.6242 16.084C49.9002 15.616 50.0382 15.058 50.0382 14.41C50.0382 13.762 49.9002 13.21 49.6242 12.754C49.3602 12.286 49.0122 11.932 48.5802 11.692C48.1482 11.44 47.6802 11.314 47.1762 11.314C46.6722 11.314 46.1982 11.44 45.7542 11.692C45.3222 11.932 44.9682 12.286 44.6922 12.754C44.4282 13.21 44.2962 13.762 44.2962 14.41C44.2962 15.058 44.4282 15.616 44.6922 16.084C44.9682 16.54 45.3282 16.894 45.7722 17.146C46.2162 17.386 46.6842 17.506 47.1762 17.506ZM58.0219 19.288C57.0739 19.288 56.2399 19.072 55.5199 18.64C54.7999 18.208 54.2359 17.626 53.8279 16.894C53.4199 16.15 53.2159 15.322 53.2159 14.41C53.2159 13.498 53.4199 12.676 53.8279 11.944C54.2359 11.2 54.7999 10.612 55.5199 10.18C56.2399 9.748 57.0739 9.532 58.0219 9.532C58.9579 9.532 59.7859 9.754 60.5059 10.198C61.2259 10.63 61.7899 11.212 62.1979 11.944C62.6059 12.676 62.8099 13.498 62.8099 14.41C62.8099 15.322 62.6059 16.15 62.1979 16.894C61.7899 17.626 61.2259 18.208 60.5059 18.64C59.7859 19.072 58.9579 19.288 58.0219 19.288ZM58.0219 17.506C58.5259 17.506 58.9939 17.386 59.4259 17.146C59.8579 16.894 60.2059 16.54 60.4699 16.084C60.7459 15.616 60.8839 15.058 60.8839 14.41C60.8839 13.762 60.7459 13.21 60.4699 12.754C60.2059 12.286 59.8579 11.932 59.4259 11.692C58.9939 11.44 58.5259 11.314 58.0219 11.314C57.5179 11.314 57.0439 11.44 56.5999 11.692C56.1679 11.932 55.8139 12.286 55.5379 12.754C55.2739 13.21 55.1419 13.762 55.1419 14.41C55.1419 15.058 55.2739 15.616 55.5379 16.084C55.8139 16.54 56.1739 16.894 56.6179 17.146C57.0619 17.386 57.5299 17.506 58.0219 17.506ZM68.6876 23.176C67.8836 23.176 67.1876 23.044 66.5996 22.78C66.0236 22.528 65.5556 22.198 65.1956 21.79C64.8356 21.394 64.5776 20.986 64.4216 20.566L66.2216 19.81C66.4136 20.29 66.7196 20.68 67.1396 20.98C67.5716 21.292 68.0876 21.448 68.6876 21.448C69.5396 21.448 70.2056 21.196 70.6856 20.692C71.1656 20.188 71.4056 19.474 71.4056 18.55V17.668H71.2976C71.0096 18.088 70.6136 18.43 70.1096 18.694C69.6056 18.958 69.0236 19.09 68.3636 19.09C67.5836 19.09 66.8636 18.892 66.2036 18.496C65.5556 18.1 65.0336 17.548 64.6376 16.84C64.2536 16.12 64.0616 15.28 64.0616 14.32C64.0616 13.348 64.2536 12.508 64.6376 11.8C65.0336 11.08 65.5556 10.522 66.2036 10.126C66.8636 9.73 67.5836 9.532 68.3636 9.532C69.0236 9.532 69.6056 9.664 70.1096 9.928C70.6136 10.18 71.0096 10.528 71.2976 10.972H71.4056V9.82H73.2596V18.514C73.2596 19.51 73.0616 20.356 72.6656 21.052C72.2816 21.748 71.7476 22.276 71.0636 22.636C70.3796 22.996 69.5876 23.176 68.6876 23.176ZM68.7056 17.326C69.1856 17.326 69.6296 17.212 70.0376 16.984C70.4576 16.744 70.7876 16.402 71.0276 15.958C71.2796 15.502 71.4056 14.956 71.4056 14.32C71.4056 13.648 71.2796 13.09 71.0276 12.646C70.7876 12.202 70.4576 11.866 70.0376 11.638C69.6296 11.41 69.1856 11.296 68.7056 11.296C68.2256 11.296 67.7756 11.41 67.3556 11.638C66.9476 11.866 66.6176 12.208 66.3656 12.664C66.1136 13.108 65.9876 13.66 65.9876 14.32C65.9876 14.968 66.1136 15.52 66.3656 15.976C66.6176 16.42 66.9476 16.756 67.3556 16.984C67.7756 17.212 68.2256 17.326 68.7056 17.326ZM75.4988 19V6.112H77.4428V19H75.4988ZM83.894 19.288C82.994 19.288 82.19 19.078 81.482 18.658C80.774 18.238 80.216 17.662 79.808 16.93C79.412 16.198 79.214 15.364 79.214 14.428C79.214 13.552 79.406 12.742 79.79 11.998C80.174 11.254 80.708 10.66 81.392 10.216C82.088 9.76 82.886 9.532 83.786 9.532C84.734 9.532 85.538 9.736 86.198 10.144C86.87 10.552 87.38 11.11 87.728 11.818C88.076 12.526 88.25 13.324 88.25 14.212C88.25 14.344 88.244 14.464 88.232 14.572C88.232 14.68 88.226 14.764 88.214 14.824H81.122C81.17 15.328 81.296 15.766 81.5 16.138C81.764 16.606 82.112 16.96 82.544 17.2C82.976 17.44 83.444 17.56 83.948 17.56C84.56 17.56 85.07 17.422 85.478 17.146C85.898 16.858 86.228 16.504 86.468 16.084L88.07 16.858C87.674 17.578 87.134 18.166 86.45 18.622C85.766 19.066 84.914 19.288 83.894 19.288ZM81.23 13.366H86.324C86.312 13.138 86.252 12.898 86.144 12.646C86.036 12.382 85.88 12.142 85.676 11.926C85.472 11.71 85.214 11.536 84.902 11.404C84.59 11.26 84.224 11.188 83.804 11.188C83.276 11.188 82.808 11.326 82.4 11.602C81.992 11.866 81.674 12.238 81.446 12.718C81.35 12.922 81.278 13.138 81.23 13.366ZM100.556 19.288C99.6079 19.288 98.7259 19.12 97.9099 18.784C97.1059 18.436 96.3979 17.962 95.7859 17.362C95.1859 16.75 94.7179 16.036 94.3819 15.22C94.0459 14.392 93.8779 13.504 93.8779 12.556C93.8779 11.596 94.0459 10.708 94.3819 9.892C94.7179 9.076 95.1859 8.368 95.7859 7.768C96.3979 7.156 97.1059 6.682 97.9099 6.346C98.7259 5.998 99.6079 5.824 100.556 5.824C101.216 5.824 101.828 5.908 102.392 6.076C102.968 6.244 103.496 6.484 103.976 6.796C104.456 7.108 104.888 7.486 105.272 7.93L104.174 8.992C103.85 8.596 103.502 8.272 103.13 8.02C102.77 7.768 102.374 7.582 101.942 7.462C101.522 7.342 101.06 7.282 100.556 7.282C99.6319 7.282 98.7799 7.498 97.9999 7.93C97.2199 8.362 96.5959 8.974 96.1279 9.766C95.6599 10.546 95.4259 11.476 95.4259 12.556C95.4259 13.624 95.6599 14.554 96.1279 15.346C96.5959 16.138 97.2199 16.75 97.9999 17.182C98.7799 17.614 99.6319 17.83 100.556 17.83C101.396 17.83 102.14 17.656 102.788 17.308C103.448 16.96 104.03 16.492 104.534 15.904L105.65 16.984C105.278 17.428 104.828 17.824 104.3 18.172C103.784 18.52 103.208 18.796 102.572 19C101.948 19.192 101.276 19.288 100.556 19.288ZM107.456 19V6.112H108.986V19H107.456ZM115.448 19.288C114.524 19.288 113.708 19.072 113 18.64C112.292 18.208 111.734 17.626 111.326 16.894C110.93 16.15 110.732 15.322 110.732 14.41C110.732 13.498 110.93 12.676 111.326 11.944C111.734 11.2 112.292 10.612 113 10.18C113.708 9.748 114.524 9.532 115.448 9.532C116.372 9.532 117.188 9.754 117.896 10.198C118.604 10.63 119.156 11.218 119.552 11.962C119.96 12.694 120.164 13.51 120.164 14.41C120.164 15.322 119.96 16.15 119.552 16.894C119.156 17.626 118.604 18.208 117.896 18.64C117.188 19.072 116.372 19.288 115.448 19.288ZM115.448 17.902C116 17.902 116.516 17.764 116.996 17.488C117.488 17.212 117.884 16.816 118.184 16.3C118.484 15.772 118.634 15.142 118.634 14.41C118.634 13.678 118.484 13.054 118.184 12.538C117.884 12.01 117.488 11.608 116.996 11.332C116.516 11.056 116 10.918 115.448 10.918C114.896 10.918 114.374 11.056 113.882 11.332C113.39 11.608 112.994 12.01 112.694 12.538C112.394 13.054 112.244 13.678 112.244 14.41C112.244 15.142 112.394 15.772 112.694 16.3C112.994 16.816 113.39 17.212 113.882 17.488C114.374 17.764 114.896 17.902 115.448 17.902ZM125.235 19.288C124.107 19.288 123.255 18.958 122.679 18.298C122.115 17.638 121.833 16.738 121.833 15.598V9.82H123.363V15.364C123.363 16.276 123.573 16.93 123.993 17.326C124.413 17.71 124.935 17.902 125.559 17.902C126.099 17.902 126.567 17.764 126.963 17.488C127.359 17.2 127.665 16.834 127.881 16.39C128.097 15.946 128.205 15.484 128.205 15.004V9.82H129.735V19H128.277V17.668H128.205C128.049 17.956 127.815 18.226 127.503 18.478C127.203 18.718 126.855 18.91 126.459 19.054C126.075 19.21 125.667 19.288 125.235 19.288ZM135.866 19.288C135.038 19.288 134.288 19.078 133.616 18.658C132.956 18.238 132.434 17.662 132.05 16.93C131.666 16.198 131.474 15.358 131.474 14.41C131.474 13.462 131.666 12.622 132.05 11.89C132.434 11.158 132.956 10.582 133.616 10.162C134.288 9.742 135.038 9.532 135.866 9.532C136.358 9.532 136.808 9.61 137.216 9.766C137.624 9.922 137.978 10.126 138.278 10.378C138.59 10.63 138.83 10.9 138.998 11.188H139.07L138.998 9.91V6.112H140.528V19H139.07V17.65H138.998C138.83 17.926 138.59 18.19 138.278 18.442C137.978 18.694 137.624 18.898 137.216 19.054C136.808 19.21 136.358 19.288 135.866 19.288ZM136.028 17.902C136.556 17.902 137.048 17.764 137.504 17.488C137.972 17.2 138.35 16.798 138.638 16.282C138.926 15.754 139.07 15.13 139.07 14.41C139.07 13.69 138.926 13.072 138.638 12.556C138.35 12.028 137.972 11.626 137.504 11.35C137.048 11.062 136.556 10.918 136.028 10.918C135.5 10.918 135.002 11.062 134.534 11.35C134.078 11.626 133.706 12.028 133.418 12.556C133.13 13.072 132.986 13.69 132.986 14.41C132.986 15.118 133.13 15.736 133.418 16.264C133.706 16.792 134.078 17.2 134.534 17.488C135.002 17.764 135.5 17.902 136.028 17.902ZM147.242 19V6.112H149.114L155.576 16.372H155.648L155.576 13.888V6.112H157.106V19H155.522L148.772 8.254H148.7L148.772 10.738V19H147.242ZM163.731 19.288C162.843 19.288 162.051 19.078 161.355 18.658C160.671 18.238 160.131 17.662 159.735 16.93C159.351 16.198 159.159 15.364 159.159 14.428C159.159 13.552 159.339 12.742 159.699 11.998C160.071 11.254 160.587 10.66 161.247 10.216C161.919 9.76 162.705 9.532 163.605 9.532C164.517 9.532 165.297 9.736 165.945 10.144C166.605 10.54 167.109 11.092 167.457 11.8C167.817 12.508 167.997 13.318 167.997 14.23C167.997 14.314 167.991 14.398 167.979 14.482C167.979 14.566 167.973 14.638 167.961 14.698H160.689C160.725 15.358 160.875 15.916 161.139 16.372C161.439 16.888 161.823 17.272 162.291 17.524C162.771 17.776 163.269 17.902 163.785 17.902C164.457 17.902 165.009 17.746 165.441 17.434C165.885 17.11 166.239 16.714 166.503 16.246L167.799 16.876C167.439 17.572 166.923 18.148 166.251 18.604C165.579 19.06 164.739 19.288 163.731 19.288ZM160.779 13.438H166.377C166.365 13.186 166.305 12.916 166.197 12.628C166.101 12.328 165.939 12.052 165.711 11.8C165.495 11.536 165.213 11.326 164.865 11.17C164.529 11.002 164.109 10.918 163.605 10.918C163.005 10.918 162.483 11.074 162.039 11.386C161.607 11.686 161.277 12.1 161.049 12.628C160.929 12.88 160.839 13.15 160.779 13.438ZM168.463 19L171.703 14.338L168.535 9.82H170.263L172.639 13.222L174.907 9.82H176.707L173.485 14.338L176.761 19H174.979L172.603 15.472L170.245 19H168.463ZM177.313 11.206V9.82H178.933V7.228H180.463V9.82H182.713V11.206H180.463V16.21C180.463 16.726 180.565 17.11 180.769 17.362C180.985 17.602 181.303 17.722 181.723 17.722C181.915 17.722 182.095 17.698 182.263 17.65C182.431 17.59 182.593 17.512 182.749 17.416V18.91C182.557 18.982 182.359 19.036 182.155 19.072C181.951 19.12 181.729 19.144 181.489 19.144C180.721 19.144 180.103 18.916 179.635 18.46C179.167 17.992 178.933 17.368 178.933 16.588V11.206H177.313ZM188.396 19V17.47C188.432 17.434 188.54 17.32 188.72 17.128C188.9 16.924 189.128 16.672 189.404 16.372C189.68 16.06 189.974 15.73 190.286 15.382C190.61 15.022 190.934 14.662 191.258 14.302C191.582 13.942 191.882 13.612 192.158 13.312C192.434 13.012 192.656 12.772 192.824 12.592C193.388 11.98 193.802 11.44 194.066 10.972C194.342 10.492 194.48 9.988 194.48 9.46C194.48 9.064 194.384 8.704 194.192 8.38C194 8.044 193.724 7.78 193.364 7.588C193.016 7.384 192.608 7.282 192.14 7.282C191.696 7.282 191.306 7.378 190.97 7.57C190.646 7.762 190.382 7.996 190.178 8.272C189.986 8.548 189.86 8.818 189.8 9.082L188.414 8.524C188.486 8.272 188.612 7.996 188.792 7.696C188.984 7.384 189.236 7.084 189.548 6.796C189.86 6.508 190.238 6.274 190.682 6.094C191.126 5.914 191.636 5.824 192.212 5.824C193.016 5.824 193.7 5.998 194.264 6.346C194.84 6.694 195.284 7.144 195.596 7.696C195.908 8.236 196.064 8.818 196.064 9.442C196.064 9.982 195.95 10.51 195.722 11.026C195.494 11.542 195.218 12.022 194.894 12.466C194.57 12.898 194.258 13.27 193.958 13.582C193.802 13.738 193.586 13.966 193.31 14.266C193.046 14.554 192.758 14.872 192.446 15.22C192.134 15.556 191.828 15.886 191.528 16.21C191.228 16.534 190.964 16.816 190.736 17.056C190.52 17.296 190.37 17.458 190.286 17.542H196.172V19H188.396ZM202.137 19.288C201.585 19.288 201.021 19.168 200.445 18.928C199.869 18.688 199.353 18.316 198.897 17.812C198.453 17.308 198.135 16.666 197.943 15.886L199.293 15.346C199.485 16.078 199.821 16.678 200.301 17.146C200.781 17.602 201.375 17.83 202.083 17.83C202.899 17.83 203.565 17.578 204.081 17.074C204.597 16.558 204.855 15.898 204.855 15.094C204.855 14.554 204.741 14.074 204.513 13.654C204.285 13.234 203.961 12.904 203.541 12.664C203.133 12.424 202.659 12.304 202.119 12.304C201.675 12.304 201.249 12.412 200.841 12.628C200.433 12.832 200.109 13.108 199.869 13.456L198.321 12.844L199.167 6.112H205.593V7.57H200.409L199.887 11.692L199.977 11.71C200.265 11.47 200.613 11.272 201.021 11.116C201.429 10.96 201.891 10.882 202.407 10.882C203.127 10.882 203.793 11.062 204.405 11.422C205.017 11.782 205.503 12.274 205.863 12.898C206.235 13.522 206.421 14.242 206.421 15.058C206.421 15.85 206.235 16.564 205.863 17.2C205.491 17.836 204.981 18.346 204.333 18.73C203.697 19.102 202.965 19.288 202.137 19.288Z" fill="white"/>
<path d="M13.9025 8.7175L15.7196 6.86989L15.8407 6.09192C12.5294 3.03045 7.26563 3.37759 4.28061 6.81626C3.45145 7.77132 2.83632 8.96202 2.5083 10.1916L3.15912 10.0983L6.79331 9.489L7.07389 9.19724C8.69048 7.39205 11.4238 7.1492 13.2904 8.68512L13.9025 8.7175Z" fill="#EA4335"/>
<path d="M18.308 10.1373C17.8903 8.57337 17.0328 7.16747 15.8405 6.09201L13.2901 8.68513C14.367 9.57983 14.9805 10.9277 14.9542 12.3414V12.8017C16.2078 12.8017 17.2241 13.835 17.2241 15.1096C17.2241 16.3842 16.2078 17.3916 14.9542 17.3916H10.4083L9.96191 17.8842V20.6524L10.4083 21.0867H14.9542C18.2149 21.1125 20.8787 18.4718 20.9041 15.1565C20.9195 13.147 19.945 11.2631 18.308 10.1373Z" fill="#4285F4"/>
<path d="M5.86882 21.0867H10.4084V17.3915H5.86882C5.54537 17.3914 5.23213 17.3207 4.938 17.1841L4.29396 17.385L2.46408 19.2326L2.30469 19.8615C3.33089 20.6493 4.58295 21.0924 5.86882 21.0867Z" fill="#34A853"/>
<path d="M5.8688 9.09995C2.60811 9.11971 -0.0193275 11.8234 0.000107124 15.1387C0.0109677 16.9901 0.861356 18.7328 2.30466 19.8614L4.93798 17.184C3.7955 16.6592 3.28783 15.2921 3.80399 14.1306C4.32007 12.969 5.66465 12.4529 6.80697 12.9776C7.31039 13.2088 7.71354 13.6188 7.94096 14.1306L10.5743 11.4532C9.45384 9.96394 7.71288 9.09323 5.8688 9.09995Z" fill="#FBBC05"/>
</svg>
