<svg width="249" height="44" viewBox="0 0 249 44" fill="none" xmlns="http://www.w3.org/2000/svg">
<path d="M2 30.7716C2 25.9341 5.9216 22.0125 10.7591 22.0125H27.2427C32.0802 22.0125 36.0018 25.9341 36.0018 30.7716V33.8593C36.0018 35.1135 34.9851 36.1302 33.7309 36.1302H4.27088C3.01671 36.1302 2 35.1135 2 33.8593V30.7716Z" fill="white"/>
<path d="M7.47385 21.0183H8.76034V16.1527C8.76034 15.3257 9.4307 14.6554 10.2576 14.6554H16.6086C17.4355 14.6554 18.1059 15.3257 18.1059 16.1527V21.0183H19.2989V16.1527C19.2989 15.3257 19.9693 14.6554 20.7962 14.6554H27.2466C28.0735 14.6554 28.7439 15.3257 28.7439 16.1527V21.0183H29.7321C30.559 21.0183 31.2294 20.3479 31.2294 19.521V8.49729C31.2294 7.67036 30.559 7 29.7321 7H7.47385C6.64692 7 5.97656 7.67036 5.97656 8.49729V19.521C5.97656 20.3479 6.64692 21.0183 7.47385 21.0183Z" fill="white"/>
<path d="M52.507 32.9504C45.054 32.9504 39 27.1509 39 19.6573C39 12.1767 44.9886 6.44238 52.4416 6.44238C57.0834 6.44238 61.163 8.5797 63.7258 12.4503C64.5626 13.6884 65.2164 15.1481 65.4517 16.6207H58.6002C57.5934 14.0012 55.279 12.1767 52.4024 12.1767C48.2444 12.1767 45.5508 15.6954 45.5508 19.6312C45.5508 23.567 48.2575 27.2291 52.4416 27.2291C55.3182 27.2291 57.4626 25.4307 58.6002 22.9154H65.4517C63.9611 28.9494 58.7048 32.9504 52.507 32.9504Z" fill="white"/>
<path d="M125.704 33.1197C123.729 33.1197 121.206 32.2856 120.199 30.422H120.134V32.4551H114.629V6.9245H120.382V14.8222C121.873 13.2322 123.808 12.6457 125.952 12.6457C127.338 12.6457 128.724 12.9846 130.006 13.5841C133.706 15.3044 135.406 18.7971 135.406 22.7589C135.393 28.5323 131.692 33.1197 125.704 33.1197ZM124.932 18.0021C122.2 18.0021 120.16 20.1394 120.16 22.8371C120.16 25.5609 122.03 27.7764 124.841 27.7764C127.613 27.7764 129.653 25.6 129.653 22.8762C129.653 20.2437 127.639 18.0021 124.932 18.0021Z" fill="white"/>
<path d="M159.961 32.4681V6.9245H165.714V32.4681H159.961Z" fill="white"/>
<path d="M176 32.3577H184.381C188.839 32.3577 190.587 32.1084 193.012 30.0781C194.617 28.7603 195.437 26.445 195.437 24.3436C195.437 23.2394 195.33 19.7131 191.086 18.2172C193.226 17.0061 194.153 14.9403 194.153 12.91C194.153 11.3784 193.761 9.77557 192.584 8.56453C190.658 6.42742 188.59 6 184.132 6H176V32.3577ZM182.455 11.9127H184.845C185.879 11.9127 187.698 11.9127 187.698 13.9073C187.698 16.0088 185.772 16.0088 184.845 16.0088H182.455V11.9127ZM182.455 21.6365H185.629C186.699 21.6365 188.982 21.6365 188.982 23.9161C188.982 26.445 186.485 26.445 185.629 26.445H182.455V21.6365Z" fill="white"/>
<path d="M218.859 6H224.779V14.2635C225.421 13.6224 227.097 11.9127 230.593 11.9127C235.621 11.9127 240.4 15.7239 240.4 22.4202C240.4 28.3685 236.477 32.9989 230.486 32.9989C226.491 32.9989 225.065 31.0398 224.565 30.2206H224.494V32.3577H218.859V6ZM234.48 22.3845C234.48 20.1049 232.875 17.4336 229.451 17.4336C226.17 17.4336 224.458 19.9981 224.458 22.3845C224.458 24.4504 225.813 27.478 229.523 27.478C232.304 27.478 234.48 25.4477 234.48 22.3845Z" fill="white"/>
<path d="M197.76 32.3796H203.68V21.6228C203.68 20.4118 203.68 17.4911 207.068 17.4911C210.171 17.4911 210.171 20.1981 210.171 21.5872V32.3796H216.091V20.02C216.091 16.1376 214.879 14.5703 213.809 13.6443C212.739 12.7182 210.635 11.9346 208.745 11.9346C205.214 11.9346 203.965 13.7511 203.359 14.7128H203.288V12.6113H197.76V32.3796Z" fill="white"/>
<path d="M112.118 22.003V32.4551H106.364V22.2767C106.364 20.1655 106.09 18.0282 103.422 18.0282C100.86 18.0282 100.232 19.8266 100.232 22.003V32.4551H94.4788V22.0291C94.4788 20.0612 94.0212 18.0282 91.6022 18.0282C88.9348 18.0282 88.3464 20.0221 88.3464 22.2767V32.4551H82.5932V20.3088L69.7792 38.841H63.0322L66.8372 33.3543V13.3104H72.5904V24.9484H72.7604L80.7103 13.3104H87.9803V15.3435H88.0457C89.1571 13.3756 91.1576 12.6458 93.3412 12.6458C95.8387 12.6458 97.7085 13.8838 98.8853 16.0603C100.271 13.8838 102.376 12.6458 104.978 12.6458C106.874 12.6458 108.679 13.2061 110.039 14.5746C112.222 16.8031 112.118 19.0707 112.118 22.003Z" fill="white"/>
<path d="M151.542 32.4681V30.3959H151.476C150.443 32.3638 147.946 33.1197 145.867 33.1197C139.944 33.1197 136.204 28.5584 136.204 22.8632C136.204 17.2723 140.088 12.6458 145.867 12.6458C147.985 12.6458 150.339 13.4407 151.476 15.3435H151.542V13.3104H157.295V32.4681H151.542ZM146.691 18.0021C143.879 18.0021 141.944 20.2046 141.944 22.9414C141.944 25.6 144.023 27.7764 146.717 27.7764C149.528 27.7764 151.529 25.6391 151.529 22.8762C151.542 20.0742 149.502 18.0021 146.691 18.0021Z" fill="white"/>
</svg>
