<svg width="65" height="62" viewBox="0 0 65 62" fill="none" xmlns="http://www.w3.org/2000/svg">
<path fill-rule="evenodd" clip-rule="evenodd" d="M14.7156 16H34.2843C36.4531 16 38.2 16 39.6188 16.1182C41.075 16.2396 42.3562 16.4983 43.5406 17.1149C45.4219 18.0956 46.95 19.6576 47.9094 21.5807C48.5125 22.7914 48.7656 24.1011 48.8844 25.5897C49 27.04 49 28.8257 49 31.0427V46.9573C49 49.1743 49 50.96 48.8844 52.4103C48.7656 53.8989 48.5125 55.2086 47.9094 56.4193C46.95 58.3424 45.4219 59.9045 43.5406 60.8851C42.3562 61.5017 41.075 61.7604 39.6188 61.8818C38.2 62 36.4532 62 34.2843 62H14.7156C12.5469 62 10.8 62 9.38124 61.8818C7.92497 61.7604 6.64377 61.5017 5.45937 60.8851C3.5781 59.9044 2.04996 58.3424 1.09063 56.4193C0.487501 55.2086 0.23436 53.8989 0.115627 52.4103C-1.43051e-07 50.96 0 49.1743 0 46.9573V31.0427C0 28.8257 -1.43051e-07 27.04 0.115627 25.5897C0.234374 24.1011 0.487501 22.7914 1.09063 21.5807C2.05003 19.6576 3.5781 18.0955 5.45937 17.1149C6.64377 16.4983 7.92497 16.2396 9.38124 16.1182C10.8 16 12.5468 16 14.7156 16ZM9.70938 20.1943C8.49684 20.2933 7.80311 20.4818 7.27497 20.7565C6.14684 21.3443 5.2281 22.2835 4.6531 23.4367C4.38435 23.9765 4.19997 24.6857 4.1031 25.9252C4.0031 27.187 3.99997 28.8066 3.99997 31.1289V46.8712C3.99997 49.1935 4.0031 50.8131 4.1031 52.0749C4.19997 53.3144 4.38435 54.0235 4.6531 54.5634C5.2281 55.7166 6.14684 56.6558 7.27497 57.2435C7.8031 57.5183 8.49684 57.7067 9.70938 57.8058C10.9438 57.908 12.5281 57.9112 14.8 57.9112H34.2C36.4719 57.9112 38.0563 57.908 39.2906 57.8058C40.5032 57.7067 41.1969 57.5183 41.725 57.2435C42.8532 56.6558 43.7719 55.7166 44.3469 54.5634C44.6156 54.0235 44.8 53.3144 44.8969 52.0749C44.9969 50.8131 45 49.1935 45 46.8712V31.1289C45 28.8066 44.9969 27.1869 44.8969 25.9252C44.8 24.6857 44.6156 23.9766 44.3469 23.4367C43.7719 22.2835 42.8532 21.3443 41.725 20.7565C41.1969 20.4818 40.5032 20.2933 39.2906 20.1943C38.0562 20.0921 36.4719 20.0889 34.2 20.0889H14.8C12.5281 20.0889 10.9437 20.0921 9.70938 20.1943Z" fill="black"/>
<path fill-rule="evenodd" clip-rule="evenodd" d="M54.2312 24.1268L48.7562 28.2843C48.7093 28.3195 48.6656 28.3516 48.6187 28.3869C48.0437 28.8228 47.4656 29.2587 47.0312 29.8421C46.65 30.3518 46.3687 30.9288 46.1938 31.5442C45.9969 32.2463 46 32.9835 46 33.7175V44.2827C46 45.0168 45.9969 45.7541 46.1938 46.456C46.3688 47.0715 46.65 47.6485 47.0312 48.1581C47.4656 48.7415 48.0438 49.1775 48.6187 49.6134C48.6656 49.6487 48.7093 49.6807 48.7562 49.716L54.2312 53.8735C55.4 54.7582 56.3844 55.5083 57.2094 56.0211C58.0281 56.5308 59.0094 57.0277 60.125 56.9988C61.6219 56.9603 63.0219 56.2359 63.9438 55.0242C64.6282 54.1235 64.825 53.0176 64.9125 52.0399C65 51.0558 65 49.7961 65 48.3056V29.6944C65 28.2039 65 26.9441 64.9125 25.9601C64.825 24.9824 64.6281 23.8765 63.9438 22.9758C63.0219 21.7641 61.6219 21.0397 60.125 21.0012C59.0094 20.9723 58.0281 21.4692 57.2094 21.9789C56.3844 22.4917 55.4 23.2418 54.2312 24.1265V24.1268ZM60.0438 25.1045C60.3313 25.1173 60.5969 25.2551 60.7782 25.4827C60.7876 25.5083 60.8751 25.7103 60.9282 26.3322C60.997 27.1079 61.0001 28.1785 61.0001 29.7908V48.2092C61.0001 49.8215 60.997 50.8921 60.9282 51.6679C60.8751 52.2897 60.7876 52.4917 60.7782 52.5173C60.597 52.7449 60.3313 52.8827 60.0438 52.8956C60.0157 52.8892 59.8094 52.8411 59.2875 52.5141C58.6375 52.1102 57.8001 51.4755 56.5344 50.5171L51.1343 46.4173C50.3281 45.8051 50.2499 45.725 50.2062 45.664C50.1312 45.5615 50.075 45.4461 50.0375 45.3242C50.0187 45.2505 50 45.1383 50 44.1094V33.8902C50 32.8612 50.0187 32.749 50.0375 32.6753C50.075 32.5535 50.1312 32.4381 50.2062 32.3355C50.25 32.2746 50.3281 32.1944 51.1343 31.5822L56.5344 27.4824C57.8 26.5239 58.6375 25.8893 59.2875 25.4854C59.8094 25.1585 60.0157 25.1104 60.0438 25.104V25.1045Z" fill="black"/>
<path d="M52 22C52 20.4783 51.7067 19.0483 51.12 17.71C50.5517 16.3717 49.7725 15.2075 48.7825 14.2175C47.7925 13.2275 46.6283 12.4483 45.29 11.88C43.9517 11.2933 42.5217 11 41 11C42.5217 11 43.9517 10.7158 45.29 10.1475C46.6283 9.56082 47.7925 8.77251 48.7825 7.78248C49.7725 6.79251 50.5517 5.62834 51.12 4.28999C51.7067 2.95167 52 1.52167 52 0C52 1.52167 52.2842 2.95167 52.8525 4.28999C53.4392 5.62834 54.2275 6.79251 55.2175 7.78248C56.2075 8.77251 57.3717 9.56082 58.71 10.1475C60.0483 10.7158 61.4783 11 63 11C61.4783 11 60.0483 11.2933 58.71 11.88C57.3717 12.4483 56.2075 13.2275 55.2175 14.2175C54.2275 15.2075 53.4392 16.3717 52.8525 17.71C52.2842 19.0483 52 20.4783 52 22Z" fill="#1A73E8"/>
</svg>
